<svg xmlns="http://www.w3.org/2000/svg" version="1.1" xmlns:xlink="http://www.w3.org/1999/xlink" xmlns:svgjs="http://svgjs.com/svgjs" width="1440" height="560" preserveAspectRatio="none" viewBox="0 0 1440 560"><g mask="url(&quot;#SvgjsMask1076&quot;)" fill="none"><rect width="1440" height="560" x="0" y="0" fill="rgba(19, 121, 16, 1)"></rect><path d="M0,277.675C55.808,273.053,110.173,272.485,162.778,253.287C227.08,229.82,300.803,211.829,337.955,154.339C376.226,95.118,367.498,18.354,359.9,-51.746C352.081,-123.878,342.698,-200.986,293.646,-254.446C245.021,-307.44,168.716,-319.645,98.761,-336.35C32.031,-352.285,-38.052,-372.596,-102.488,-349.041C-165.552,-325.987,-209.311,-268.837,-243.694,-211.162C-274.222,-159.953,-270.242,-98.612,-286.051,-41.128C-304.756,26.885,-366.922,90.526,-345.114,157.608C-323.475,224.171,-247.186,258.768,-181.08,281.766C-122.879,302.014,-61.413,282.761,0,277.675" fill="#0c4f0a"></path><path d="M1440 960.498C1513.209 952.038 1555.004 875.0930000000001 1618.904 838.38 1687.508 798.9639999999999 1791.355 807.2909999999999 1828.373 737.364 1865.118 667.952 1820.194 582.96 1793.152 509.224 1770.374 447.115 1732.487 393.82 1685.356 347.398 1641.176 303.883 1590.493 267.557 1530.786 250.81 1471.542 234.19299999999998 1410.373 241.692 1349.952 253.324 1283.975 266.025 1211.055 272.829 1164.545 321.317 1117.43 370.43600000000004 1120.07 445.73900000000003 1102.3519999999999 511.454 1081.895 587.328 1026.516 662.806 1052.473 736.9780000000001 1078.517 811.399 1164.093 843.6510000000001 1232.392 883.0450000000001 1297.6970000000001 920.712 1365.109 969.152 1440 960.498" fill="#1aa316"></path></g><defs><mask id="SvgjsMask1076"><rect width="1440" height="560" fill="#ffffff"></rect></mask></defs></svg>