<svg xmlns="http://www.w3.org/2000/svg" version="1.1" xmlns:xlink="http://www.w3.org/1999/xlink" xmlns:svgjs="http://svgjs.com/svgjs" width="1440" height="560" preserveAspectRatio="none" viewBox="0 0 1440 560"><g mask="url(&quot;#SvgjsMask1039&quot;)" fill="none"><rect width="1440" height="560" x="0" y="0" fill="rgba(19, 195, 98, 1)"></rect><path d="M0,485.584C124.314,504.058,249.286,619.165,361.352,562.275C471.008,506.609,464.807,346.677,503.543,229.961C537.927,126.358,601.518,23.262,575.421,-82.733C549.857,-186.564,443.38,-242.987,368.344,-319.172C298.668,-389.915,237.791,-465.807,150.863,-513.794C46.152,-571.598,-65.396,-644.823,-183.102,-623.59C-302.947,-601.971,-400.046,-505.884,-464.783,-402.737C-524.979,-306.825,-519.35,-188.744,-526.93,-75.761C-533.947,28.821,-548.208,135.173,-507.349,231.698C-465.883,329.658,-393.478,416.636,-298.349,464.24C-207.343,509.781,-100.66,470.626,0,485.584" fill="#0c7f40"></path><path d="M1440 881.7149999999999C1505.819 883.749 1576.916 894.844 1632.225 859.108 1687.502 823.393 1697.745 749.586 1731.725 693.226 1771.1309999999999 627.867 1848.694 577.664 1847.923 501.349 1847.149 424.661 1783.984 362.834 1727.8600000000001 310.568 1675.701 261.994 1607.556 241.43400000000003 1541.116 215.632 1468.255 187.336 1394.743 128.50799999999998 1320.283 152.28300000000002 1245.7649999999999 176.07600000000002 1225.941 271.074 1176.817 331.95 1129.874 390.123 1043.29 427.632 1037.925 502.19 1032.531 577.155 1110.871 628.4159999999999 1150.909 692.023 1184.84 745.928 1202.007 812.515 1255.261 847.4590000000001 1308.7069999999999 882.528 1376.107 879.741 1440 881.7149999999999" fill="#36eb87"></path></g><defs><mask id="SvgjsMask1039"><rect width="1440" height="560" fill="#ffffff"></rect></mask></defs></svg>