<svg xmlns="http://www.w3.org/2000/svg" version="1.1" xmlns:xlink="http://www.w3.org/1999/xlink" xmlns:svgjs="http://svgjs.com/svgjs" width="1440" height="560" preserveAspectRatio="none" viewBox="0 0 1440 560"><g mask="url(&quot;#SvgjsMask1064&quot;)" fill="none"><rect width="1440" height="560" x="0" y="0" fill="rgba(40, 34, 61, 1)"></rect><path d="M0,422.303C103.297,436.164,213.393,524.759,302.491,470.685C391.031,416.95,375.366,282.602,397.054,181.328C414.289,100.851,413.747,22.441,416.103,-59.827C419.002,-161.041,461.743,-268.953,412.484,-357.419C361.345,-449.261,260.183,-523.769,155.167,-528.45C51.471,-533.072,-22.124,-433.045,-111.809,-380.788C-177.807,-342.333,-247.78,-315.448,-302.268,-261.917C-360.465,-204.741,-420.446,-142.792,-435.646,-62.636C-451.103,18.875,-415.787,98.801,-385.301,175.961C-353.302,256.951,-327.828,349.04,-254.46,395.948C-181.129,442.832,-86.264,410.727,0,422.303" fill="#1a1628"></path><path d="M1440 1062.6770000000001C1552.462 1057.106 1663.3029999999999 1108.345 1770.742 1074.645 1896.671 1035.144 2059.1059999999998 985.6759999999999 2092.525 857.998 2127.37 724.87 1946.174 626.219 1923.647 490.462 1901.938 359.635 2033.141 218.219 1967.266 103.12099999999998 1903.106-8.980000000000018 1741.534-8.475000000000023 1617.4859999999999-44.462999999999965 1493.853-80.33100000000002 1365.5-149.90499999999997 1244.259-106.63400000000001 1123.8980000000001-63.67700000000002 1061.91 66.24900000000002 997.6949999999999 176.74099999999999 942.894 271.034 918.929 374.911 901.799 482.618 884.419 591.901 865.849 701.746 897.326 807.831 931.756 923.869 977.947 1057.042 1087.5059999999999 1108.492 1196.972 1159.899 1319.212 1068.661 1440 1062.6770000000001" fill="#362e52"></path></g><defs><mask id="SvgjsMask1064"><rect width="1440" height="560" fill="#ffffff"></rect></mask></defs></svg>